<svg width="20" height="20" viewBox="0 0 20 20" fill="none" xmlns="http://www.w3.org/2000/svg">
<g clip-path="url(#clip0_108_3838)">
<path d="M0.527344 2.79688C0.199219 2.91797 0 3.21875 0 3.59375C0 3.98438 0.226562 4.30078 0.582031 4.41016C0.796875 4.47266 19.2031 4.47266 19.418 4.41016C19.7734 4.30078 20 3.98438 20 3.59375C20 3.21094 19.8008 2.91406 19.457 2.79297C19.3047 2.74219 18.2617 2.73438 9.98438 2.73828C1.95312 2.73828 0.664062 2.74609 0.527344 2.79688Z" fill="white"/>
<path d="M0.425781 9.23047C0.332031 9.28125 0.203125 9.39844 0.136719 9.48828C0.0273438 9.64062 0.0195312 9.68359 0.0195312 9.98047C0.0195312 10.2773 0.0273438 10.3203 0.136719 10.4727C0.203125 10.5625 0.332031 10.6797 0.425781 10.7305L0.597656 10.8203H10H19.4023L19.5742 10.7305C19.668 10.6797 19.8008 10.5625 19.8633 10.4727C19.9727 10.3203 19.9805 10.2773 19.9805 9.98047C19.9805 9.68359 19.9727 9.64062 19.8633 9.48828C19.8008 9.39844 19.668 9.28125 19.5742 9.23047L19.4023 9.14062H10H0.597656L0.425781 9.23047Z" fill="white"/>
<path d="M0.574219 15.5586C0.21875 15.6719 0 15.9766 0 16.3672C0 16.7539 0.238281 17.0898 0.574219 17.1836C0.78125 17.2422 19.2188 17.2422 19.4258 17.1836C19.7617 17.0898 20 16.7539 20 16.3672C20 15.9648 19.7617 15.6445 19.3906 15.5508C19.1406 15.4883 0.777344 15.4961 0.574219 15.5586Z" fill="white"/>
</g>
<defs>
<clipPath id="clip0_108_3838">
<rect width="20" height="20" fill="white"/>
</clipPath>
</defs>
</svg>
