<svg width="32.000000" height="32.000000" viewBox="0 0 32 32" fill="none" xmlns="http://www.w3.org/2000/svg" xmlns:xlink="http://www.w3.org/1999/xlink">
	<desc>
			Created with Pixso.
	</desc>
	<defs>
		<clipPath id="clip67_93">
			<rect id="free-icon-check-1055183 1" width="12.000000" height="12.000000" transform="translate(10.000000 10.000000)" fill="white" fill-opacity="0"/>
		</clipPath>
	</defs>
	<circle id="Ellipse 10" cx="16.000000" cy="16.000000" r="16.000000" fill="#E65921" fill-opacity="1.000000"/>
	<rect id="free-icon-check-1055183 1" width="12.000000" height="12.000000" transform="translate(10.000000 10.000000)" fill="#FFFFFF" fill-opacity="0"/>
	<g clip-path="url(#clip67_93)">
		<path id="Vector" d="M20.875 11.6897C20.5703 11.7412 20.739 11.5842 17.3992 14.9193L14.3125 18.0038L12.8992 16.5951C11.5913 15.2897 11.4766 15.1819 11.3406 15.1233C10.9116 14.9358 10.4077 15.0834 10.1523 15.4701C10.0444 15.6295 10 15.7865 10 15.9999C10 16.2061 10.0444 16.3632 10.1406 16.5131C10.1782 16.5717 11.0078 17.4202 11.9851 18.3951C13.9258 20.3334 13.8391 20.2584 14.1719 20.3099C14.3687 20.3428 14.5515 20.3124 14.7554 20.2186C14.9009 20.1506 15.1047 19.9514 18.3718 16.6842C21.6978 13.3584 21.8359 13.2155 21.9109 13.0585C21.9836 12.9037 21.9883 12.8802 21.9883 12.6366C21.9883 12.3975 21.9836 12.3671 21.9155 12.2264C21.7305 11.835 21.3086 11.6171 20.875 11.6897Z" fill="#FFFFFF" fill-opacity="1.000000" fill-rule="nonzero"/>
	</g>
</svg>
